<svg width="17" height="16" viewBox="0 0 17 16" fill="none" xmlns="http://www.w3.org/2000/svg" xmlns:xlink="http://www.w3.org/1999/xlink">
	<defs>
		<clipPath id="clip9_7956">
			<rect id="ArrowLeft" width="16.252964" height="16" fill="white" fill-opacity="0"/>
		</clipPath>
	</defs>
	<g clip-path="url(#clip9_7956)">
		<path id="Vector" d="M14.65 7.32L4.04 7.32L10.39 1.89C10.49 1.8 10.43 1.64 10.3 1.64L8.69 1.64C8.62 1.64 8.55 1.66 8.5 1.71L1.65 7.56C1.58 7.62 1.53 7.68 1.5 7.76C1.46 7.83 1.45 7.91 1.45 7.99C1.45 8.08 1.46 8.16 1.5 8.23C1.53 8.31 1.58 8.37 1.65 8.43L8.54 14.32C8.57 14.34 8.6 14.35 8.63 14.35L10.29 14.35C10.43 14.35 10.49 14.19 10.39 14.1L4.04 8.67L14.65 8.67C14.73 8.67 14.8 8.61 14.8 8.53L14.8 7.46C14.8 7.38 14.73 7.32 14.65 7.32Z" fill="#000000" fill-opacity="0.850000" fill-rule="nonzero"/>
	</g>
</svg>
