<svg width="24" height="24" viewBox="0 0 24 24" fill="none" xmlns="http://www.w3.org/2000/svg">
<path d="M12.0001 22.2454C17.5951 22.2454 22.2455 17.6048 22.2455 11.9999C22.2455 6.40495 17.6049 1.75452 12.0099 1.75452C11.4776 1.75452 11.2166 2.07595 11.2166 2.59795V6.49537C11.2166 6.92737 11.5081 7.2788 11.9495 7.2788C12.3918 7.2788 12.6931 6.92737 12.6931 6.49537V3.49195C17.1129 3.84337 20.5278 7.49995 20.5278 11.9999C20.5324 13.1216 20.3151 14.2331 19.8883 15.2704C19.4615 16.3077 18.8337 17.2503 18.041 18.0439C17.2484 18.8375 16.3065 19.4665 15.2697 19.8945C14.233 20.3226 13.1217 20.5412 12.0001 20.5379C7.25878 20.5379 3.45221 16.7408 3.46207 11.9999C3.47192 9.89052 4.22535 7.97223 5.48107 6.49537C5.79221 6.10366 5.81235 5.6318 5.48107 5.27995C5.14935 4.91866 4.58707 4.94866 4.22535 5.4008C2.6885 7.18837 1.75464 9.4988 1.75464 11.9999C1.75464 17.6048 6.39521 22.2454 12.0001 22.2454ZM13.6072 13.5467C14.4005 12.7229 14.2402 11.5979 13.2858 10.9354L7.9715 7.22866C7.46964 6.87723 6.94721 7.39966 7.29864 7.90152L11.0054 13.2154C11.6684 14.1698 12.7934 14.3404 13.6072 13.5467Z" fill="black"/>
</svg>
